PathFileType	4	(X/Y/Z)	C:/Users/beibeiliu/ov580/test_trc/User2\sequence.32_training_dense_left.trc
DataRate	CameraRate	NumFrames	NumMarkers	Units	OrigDataRate	OrigDataStartFrame	OrigNumFrames
120	120	8	19	mm	120	166	330
Frame#	Time	ThumbCMC			ThumbMCP			ThumbIP			ThumbTip			IndexMCP			IndexPIP			IndexTip			MiddleMCP			MiddlePIP			MiddleTip			RingMCP			RingPIP			RingTip			PinkyMCP			PinkyPIP			PinkyTip			BackHand1			BackHand2			BackHand3	
		X0	Y0	Z0	X1	Y1	Z1	X2	Y2	Z2	X3	Y3	Z3	X4	Y4	Z4	X5	Y5	Z5	X6	Y6	Z6	X7	Y7	Z7	X8	Y8	Z8	X9	Y9	Z9	X10	Y10	Z10	X11	Y11	Z11	X12	Y12	Z12	X13	Y13	Z13	X14	Y14	Z14	X15	Y15	Z15	X16	Y16	Z16	X17	Y17	Z17	X18	Y18	Z18	
165	1.375	-152.081	28.5586	94.1328	-137.415	31.1527	62.7441	-128.005	41.6144	27.7426	-131.523	45.9024	2.16212	-177.608	94.7472	62.9232	-175.833	118.328	35.0636	-164.855	118.089	5.90007	-209.035	90.1803	46.3852	-206.974	110.123	12.5278	-187.062	104.774	-17.2856	-209.89	73.7155	27.8166	-194.04	69.5714	-0.197808	-175.464	42.5886	9.95487	-219.197	50.3213	27.2547	-202.671	47.9475	-0.478098	-184.35	24.6992	12.743	-223.436	36.4776	77.7845	-222.315	18.6516	103.069	-196.115	43.6706	103.517	
166	1.38333	-151.874	33.3029	97.8897	-136.443	38.9398	65.3059	-126.144	53.5593	32.5122	-136.548	59.0803	8.05485	-178.72	102.895	75.3202	-174.694	130.311	51.6969	-158.194	132.529	21.226	-210.329	104.023	59.2224	-206.817	123.786	27.8463	-187.296	117.865	-4.27653	-216.305	83.0885	36.7583	-196.873	84.6639	11.0983	-180.149	53.8319	16.3958	-223.449	62.0463	30.5597	-199.417	60.9536	9.19578	-184.942	34.8185	17.0032	-225.304	43.1085	84.6188	-221.509	20.9602	108.305	-192.134	49.4821	110.558	
167	1.39167	-152.475	35.2069	103.147	-139.492	47.7042	67.0311	-126.95	60.0681	38.8057	-135.31	71.5201	10.8456	-180.207	114.684	86.5266	-175.32	139.508	64.5849	-160.843	141.253	34.5811	-212.101	110.537	69.918	-208.084	133.619	42.8292	-188.475	127.687	7.79845	-214.301	92.9841	48.5486	-197.901	95.5623	18.7646	-180.025	63.2777	24.9236	-222.977	71.6521	40.6736	-203.664	71.119	13.142	-185.325	44.7689	20.3183	-225.804	51.599	90.0758	-222.953	23.6903	110.48	-193.178	53.0612	115.842	
168	1.4	-156.118	42.0465	103.291	-139.455	50.071	72.7953	-132.211	68.4359	41.2314	-134.372	80.7005	15.9864	-180.463	118.473	96.2968	-175.949	146	75.2854	-162.995	149.419	45.3862	-210.125	118.894	80.3073	-207.547	142.26	53.1189	-184.727	137.154	17.7403	-214.572	104.627	51.7466	-195.314	104.805	28.8805	-179.966	75.375	31.6322	-224.46	79.7147	44.8026	-200.036	80.3568	20.3508	-184.501	56.9144	29.2763	-225.146	54.7073	95.8634	-225.274	27.2585	111.691	-195.002	54.5508	123.915	
169	1.40833	-152.244	42.0598	108.443	-143.004	57.4165	74.0325	-132.997	75.15	45.5469	-135.597	85.2466	22.9253	-180.414	122.056	103.869	-172.704	150.424	86.7265	-161.018	154.95	57.7112	-212.31	120.987	87.3125	-203.108	149.521	61.6251	-185.489	145.884	30.3805	-215.451	107.995	62.6422	-199.324	111.792	32.8102	-180.124	76.7452	36.7462	-222.138	88.4347	51.1897	-202.687	85.9951	24.4369	-186.177	61.0762	33.4366	-223.89	58.696	100.233	-224.393	30.0195	117.773	-197.42	56.4361	126.17	
170	1.41667	-153.191	47.8523	108.634	-136.221	58.6332	76.9603	-128.094	75.2299	50.4786	-136.525	91.8692	23.838	-180.402	126.678	107.657	-174.132	151.962	92.3883	-161.952	158.732	61.5605	-211.782	126.631	92.694	-201.674	154.147	68.1794	-187.269	147.376	34.9968	-216.261	115.74	63.4885	-195.908	116.165	38.9708	-181.069	86.689	40.4847	-226.597	91.1097	53.5039	-203.439	94.1161	31.4759	-186.32	65.3921	41.2458	-226.486	60.3414	100.597	-226.795	31.5669	116.931	-197.19	56.3642	128.92	
171	1.425	-152.654	46.7328	111.143	-139.928	59.9477	78.4826	-131.592	80.129	50.5901	-135.886	91.8781	29.7172	-179.147	127.736	111.355	-175.495	152.239	95.4706	-162.109	160.905	64.8054	-209.959	127.472	97.1646	-203.911	153.82	75.4093	-183.794	152.483	39.2341	-214.466	116.558	71.5239	-200.391	122.99	45.0121	-180.706	87.8376	43.6921	-226.838	92.849	57.7109	-203.013	97.8222	32.9138	-187.423	72.8305	40.9737	-226.541	65.6178	101.876	-225.403	30.8658	119.813	-192.675	56.49	131.042	
172	1.43333	-153.406	45.642	110.187	-135.613	59.0122	78.7598	-130.603	80.4607	51.185	-133.841	94.2257	26.6472	-178.931	122.182	112.23	-175.26	152.208	96.9839	-160.624	160.682	69.2446	-210.098	124.303	96.9749	-202.586	154.738	75.7537	-183.478	152.727	38.9003	-213.992	119.572	71.9878	-198.191	122.222	45.1927	-184.353	90.1198	42.2257	-229.112	93.4325	56.8458	-203.99	97.5548	33.064	-187.878	68.0062	40.7837	-222.923	65.7467	105.114	-226.54	33.4798	117.988	-197.359	54.4945	129.042	
